<svg width="13" height="21" viewBox="0 0 13 21" fill="none" xmlns="http://www.w3.org/2000/svg">
<path d="M0.5 10.5391C0.5 10.3359 0.535156 10.1484 0.605469 9.97656C0.683594 9.80469 0.800781 9.64062 0.957031 9.48438L10.0859 0.554688C10.3516 0.296875 10.6719 0.167969 11.0469 0.167969C11.3047 0.167969 11.5352 0.230469 11.7383 0.355469C11.9492 0.472656 12.1172 0.632813 12.2422 0.835938C12.3672 1.03906 12.4297 1.26953 12.4297 1.52734C12.4297 1.89453 12.2852 2.22266 11.9961 2.51172L3.76953 10.5391L11.9961 18.5664C12.2852 18.8555 12.4297 19.1875 12.4297 19.5625C12.4297 19.8125 12.3672 20.0391 12.2422 20.2422C12.1172 20.4531 11.9492 20.6172 11.7383 20.7344C11.5352 20.8594 11.3047 20.9219 11.0469 20.9219C10.6719 20.9219 10.3516 20.7891 10.0859 20.5234L0.957031 11.5938C0.800781 11.4375 0.683594 11.2734 0.605469 11.1016C0.535156 10.9297 0.5 10.7422 0.5 10.5391Z" fill="white"/>
</svg>
