<svg width="20" height="20" viewBox="0 0 20 20" fill="none" xmlns="http://www.w3.org/2000/svg">
<path d="M11.0547 17.625C10.7526 17.625 10.5 17.526 10.2969 17.3281C10.099 17.1302 10 16.8828 10 16.5859V13.7656H9.80469C8.85156 13.7656 8.01302 13.8672 7.28906 14.0703C6.5651 14.2734 5.92969 14.6042 5.38281 15.0625C4.83594 15.5208 4.35677 16.1354 3.94531 16.9062C3.79427 17.1875 3.625 17.3724 3.4375 17.4609C3.25521 17.5495 3.0625 17.5938 2.85938 17.5938C2.58854 17.5938 2.35938 17.4688 2.17188 17.2188C1.98958 16.974 1.89844 16.6094 1.89844 16.125C1.89844 14.7083 2.05729 13.4375 2.375 12.3125C2.69271 11.1823 3.17448 10.2188 3.82031 9.42188C4.47135 8.625 5.29167 8.01823 6.28125 7.60156C7.27604 7.17969 8.45052 6.96875 9.80469 6.96875H10V4.17188C10 3.875 10.099 3.6224 10.2969 3.41406C10.5 3.20052 10.7552 3.09375 11.0625 3.09375C11.2708 3.09375 11.4583 3.14062 11.625 3.23438C11.7969 3.32292 11.9948 3.47396 12.2188 3.6875L18.4062 9.45312C18.5573 9.59375 18.6641 9.74479 18.7266 9.90625C18.7943 10.0625 18.8281 10.2135 18.8281 10.3594C18.8281 10.5 18.7943 10.651 18.7266 10.8125C18.6641 10.974 18.5573 11.125 18.4062 11.2656L12.2188 17.0781C12.0156 17.2708 11.8203 17.4089 11.6328 17.4922C11.4505 17.5807 11.2578 17.625 11.0547 17.625Z" fill="white"/>
</svg>
