<svg width="32" height="32" viewBox="0 0 32 32" fill="none" xmlns="http://www.w3.org/2000/svg">
<g clip-path="url(#clip0_8025_375)">
<path d="M8.89844 27.4844C7.63281 27.4844 6.67578 27.1602 6.02734 26.5117C5.37891 25.8711 5.05469 24.9297 5.05469 23.6875V9.41406C5.05469 8.15625 5.37891 7.20703 6.02734 6.56641C6.67578 5.92578 7.63281 5.60547 8.89844 5.60547H23.0898C24.3555 5.60547 25.3125 5.92969 25.9609 6.57812C26.6094 7.21875 26.9336 8.16406 26.9336 9.41406V23.6875C26.9336 24.9297 26.6094 25.8711 25.9609 26.5117C25.3125 27.1602 24.3555 27.4844 23.0898 27.4844H8.89844ZM21.2969 13.2227C21.8281 13.2305 22.2891 13.0391 22.6797 12.6484C23.0703 12.2578 23.2656 11.7852 23.2656 11.2305C23.2656 10.6914 23.0703 10.2344 22.6797 9.85938C22.2969 9.47656 21.8359 9.28516 21.2969 9.28516C20.75 9.28516 20.2812 9.47656 19.8906 9.85938C19.5 10.2344 19.3047 10.6914 19.3047 11.2305C19.3047 11.7852 19.5 12.2539 19.8906 12.6367C20.2812 13.0195 20.75 13.2148 21.2969 13.2227ZM16 18.5195C16.5312 18.5195 16.9883 18.3281 17.3711 17.9453C17.7617 17.5547 17.957 17.0859 17.957 16.5391C17.957 16 17.7617 15.543 17.3711 15.168C16.9883 14.7852 16.5312 14.5938 16 14.5938C15.4531 14.5938 14.9883 14.7852 14.6055 15.168C14.2227 15.543 14.0312 16 14.0312 16.5391C14.0312 17.0859 14.2188 17.5547 14.5938 17.9453C14.9766 18.3281 15.4453 18.5195 16 18.5195ZM10.6914 23.8398C11.2383 23.8398 11.7031 23.6484 12.0859 23.2656C12.4688 22.875 12.6602 22.4062 12.6602 21.8594C12.6602 21.3203 12.4648 20.8594 12.0742 20.4766C11.6914 20.0938 11.2305 19.9023 10.6914 19.9023C10.1523 19.9023 9.69141 20.0938 9.30859 20.4766C8.92578 20.8594 8.73438 21.3203 8.73438 21.8594C8.73438 22.4062 8.92578 22.875 9.30859 23.2656C9.69141 23.6484 10.1523 23.8398 10.6914 23.8398Z" fill="white" fill-opacity="0.5"/>
</g>
<defs>
<clipPath id="clip0_8025_375">
<rect width="32" height="32" fill="white"/>
</clipPath>
</defs>
</svg>
