<svg width="40" height="40" viewBox="0 0 40 40" fill="none" xmlns="http://www.w3.org/2000/svg">
<path d="M0 20C0 8.95431 8.95431 0 20 0C31.0457 0 40 8.95431 40 20C40 31.0457 31.0457 40 20 40C8.95431 40 0 31.0457 0 20Z" fill="#FF2300"/>
<g clip-path="url(#clip0_8003_564)">
<path d="M17.6094 26.0312C17.776 26.0312 17.9115 25.9818 18.0156 25.8828C18.1198 25.7839 18.1693 25.6536 18.1641 25.4922L17.9141 16.9922C17.9141 16.8307 17.8594 16.7031 17.75 16.6094C17.6458 16.5104 17.513 16.4609 17.3516 16.4609C17.1797 16.4609 17.0417 16.5104 16.9375 16.6094C16.8385 16.7083 16.7917 16.8385 16.7969 17L17.0312 25.4922C17.0417 25.6589 17.0964 25.7917 17.1953 25.8906C17.2995 25.9844 17.4375 26.0312 17.6094 26.0312ZM20 26.0312C20.1719 26.0312 20.3099 25.9844 20.4141 25.8906C20.5234 25.7917 20.5781 25.6615 20.5781 25.5V17C20.5781 16.8385 20.5234 16.7083 20.4141 16.6094C20.3099 16.5104 20.1719 16.4609 20 16.4609C19.8333 16.4609 19.6953 16.5104 19.5859 16.6094C19.4818 16.7083 19.4297 16.8385 19.4297 17V25.5C19.4297 25.6615 19.4818 25.7917 19.5859 25.8906C19.6953 25.9844 19.8333 26.0312 20 26.0312ZM22.3984 26.0312C22.5703 26.0312 22.7057 25.9844 22.8047 25.8906C22.9089 25.7969 22.9635 25.6641 22.9688 25.4922L23.2031 17C23.2083 16.8385 23.1589 16.7083 23.0547 16.6094C22.9557 16.5104 22.8203 16.4609 22.6484 16.4609C22.4922 16.4609 22.3594 16.5104 22.25 16.6094C22.1458 16.7031 22.0911 16.8333 22.0859 17L21.8438 25.4922C21.8385 25.6589 21.8854 25.7917 21.9844 25.8906C22.0885 25.9844 22.2266 26.0312 22.3984 26.0312ZM16.4531 14.4141V12.7266C16.4531 12.1276 16.6328 11.6615 16.9922 11.3281C17.3568 10.9896 17.862 10.8203 18.5078 10.8203H21.4766C22.1224 10.8203 22.6276 10.9896 22.9922 11.3281C23.3568 11.6615 23.5391 12.1276 23.5391 12.7266V14.4141H22.0938V12.7969C22.0938 12.599 22.0286 12.4401 21.8984 12.3203C21.7682 12.1953 21.5938 12.1328 21.375 12.1328H18.6094C18.3958 12.1328 18.224 12.1953 18.0938 12.3203C17.9635 12.4401 17.8984 12.599 17.8984 12.7969V14.4141H16.4531ZM12.9922 15.2734C12.7995 15.2734 12.6354 15.2057 12.5 15.0703C12.3646 14.9349 12.2969 14.7708 12.2969 14.5781C12.2969 14.3906 12.3646 14.2318 12.5 14.1016C12.6354 13.9661 12.7995 13.8984 12.9922 13.8984H27.0156C27.2083 13.8984 27.3698 13.9635 27.5 14.0938C27.6354 14.224 27.7031 14.3854 27.7031 14.5781C27.7031 14.7708 27.6354 14.9349 27.5 15.0703C27.3698 15.2057 27.2083 15.2734 27.0156 15.2734H12.9922ZM16.4141 28.4531C15.8099 28.4531 15.3255 28.2839 14.9609 27.9453C14.6016 27.6068 14.4089 27.1354 14.3828 26.5312L13.8359 15.1094H26.1641L25.625 26.5234C25.599 27.1276 25.4036 27.599 25.0391 27.9375C24.6745 28.2812 24.1927 28.4531 23.5938 28.4531H16.4141Z" fill="white"/>
</g>
<defs>
<clipPath id="clip0_8003_564">
<rect width="24" height="24" fill="white" transform="translate(8 8)"/>
</clipPath>
</defs>
</svg>
