<svg width="200" height="200" viewBox="0 0 200 200" fill="none" xmlns="http://www.w3.org/2000/svg">
<g clip-path="url(#clip0_2004_158)">
<rect width="200" height="200" fill="#FF2300"/>
<path d="M24.907 50H175.025V62.5H24.907V50Z" fill="#00242C"/>
<path d="M93.8092 75H106.191L105.352 91.3074L118.775 82.8084L125 92.126L109.682 99.9777L125 107.874L118.775 117.192L105.352 108.693L106.191 125H93.8092L94.6486 108.676L81.157 117.192L75 107.874L90.2543 100.011L75 92.1916L81.157 82.8084L94.6943 91.3525L93.8092 75Z" fill="#00242C"/>
<path d="M150.059 75H162.441L161.602 91.3074L175.025 82.8084L181.25 92.126L165.932 99.9777L181.25 107.874L175.025 117.192L161.602 108.693L162.441 125H150.059L150.899 108.676L137.407 117.192L131.25 107.874L146.504 100.011L131.25 92.1916L137.407 82.8084L150.944 91.3525L150.059 75Z" fill="#00242C"/>
<path d="M175.025 137.5H24.907V150H175.025V137.5Z" fill="#00242C"/>
<path d="M49.9408 75H37.5592L38.4443 91.3525L24.907 82.8084L18.75 92.1916L34.0043 100.011L18.75 107.874L24.907 117.192L38.3986 108.676L37.5592 125H49.9408L49.1023 108.693L62.5254 117.192L68.75 107.874L53.4319 99.9777L68.75 92.126L62.5254 82.8084L49.1023 91.3074L49.9408 75Z" fill="#00242C"/>
</g>
<defs>
<clipPath id="clip0_2004_158">
<path d="M0 96C0 50.7452 0 28.1177 14.0589 14.0589C28.1177 0 50.7452 0 96 0H104C149.255 0 171.882 0 185.941 14.0589C200 28.1177 200 50.7452 200 96V104C200 149.255 200 171.882 185.941 185.941C171.882 200 149.255 200 104 200H96C50.7452 200 28.1177 200 14.0589 185.941C0 171.882 0 149.255 0 104V96Z" fill="white"/>
</clipPath>
</defs>
</svg>
