<svg width="48" height="48" viewBox="0 0 48 48" fill="none" xmlns="http://www.w3.org/2000/svg">
<path d="M0 24C0 10.7452 10.7452 0 24 0C37.2548 0 48 10.7452 48 24C48 37.2548 37.2548 48 24 48C10.7452 48 0 37.2548 0 24Z" fill="white" fill-opacity="0.05"/>
<g clip-path="url(#clip0_6188_260)">
<path d="M36.1641 19.5V35.4961C36.1641 36.7617 35.8398 37.7188 35.1914 38.3672C34.5508 39.0234 33.6055 39.3516 32.3555 39.3516H21.2227C19.9648 39.3516 19.0156 39.0234 18.375 38.3672C17.7344 37.7188 17.4141 36.7617 17.4141 35.4961V19.5C17.4141 18.2344 17.7344 17.2773 18.375 16.6289C19.0156 15.9805 19.9648 15.6562 21.2227 15.6562H32.3555C33.6055 15.6562 34.5508 15.9805 35.1914 16.6289C35.8398 17.2773 36.1641 18.2344 36.1641 19.5ZM33.8555 19.6523C33.8555 19.1055 33.7148 18.6875 33.4336 18.3984C33.1523 18.1094 32.7266 17.9648 32.1562 17.9648H21.4102C20.8398 17.9648 20.4141 18.1094 20.1328 18.3984C19.8516 18.6875 19.7109 19.1055 19.7109 19.6523V35.3672C19.7109 35.8984 19.8516 36.3086 20.1328 36.5977C20.4141 36.8945 20.8398 37.043 21.4102 37.043H32.1562C32.7266 37.043 33.1523 36.8945 33.4336 36.5977C33.7148 36.3086 33.8555 35.8984 33.8555 35.3672V19.6523ZM30.5859 13.582V16.6641H28.2773V13.7227C28.2773 13.1758 28.1367 12.7578 27.8555 12.4688C27.5742 12.1797 27.1523 12.0352 26.5898 12.0352H15.8438C15.2734 12.0352 14.8477 12.1797 14.5664 12.4688C14.2852 12.7578 14.1445 13.1758 14.1445 13.7227V29.4375C14.1445 29.9766 14.2852 30.3906 14.5664 30.6797C14.8477 30.9688 15.2734 31.1133 15.8438 31.1133H18.293V33.4219H15.6445C14.3867 33.4219 13.4375 33.0977 12.7969 32.4492C12.1562 31.8008 11.8359 30.8438 11.8359 29.5781V13.582C11.8359 12.3164 12.1562 11.3594 12.7969 10.7109C13.4375 10.0547 14.3867 9.72656 15.6445 9.72656H26.7773C28.0352 9.72656 28.9844 10.0547 29.625 10.7109C30.2656 11.3594 30.5859 12.3164 30.5859 13.582Z" fill="white"/>
</g>
<defs>
<clipPath id="clip0_6188_260">
<rect width="32" height="32" fill="white" transform="translate(8 8)"/>
</clipPath>
</defs>
</svg>
