<svg width="20" height="20" viewBox="0 0 20 20" fill="none" xmlns="http://www.w3.org/2000/svg">
<path d="M4.57812 18.0156C4.39583 17.8802 4.28385 17.6979 4.24219 17.4688C4.20573 17.2448 4.23958 16.9792 4.34375 16.6719L5.95312 11.8984L1.85156 8.95312C1.58594 8.76562 1.40104 8.57031 1.29688 8.36719C1.19271 8.15885 1.17708 7.94531 1.25 7.72656C1.32292 7.51302 1.46094 7.35417 1.66406 7.25C1.86719 7.14583 2.13281 7.09375 2.46094 7.09375H7.48438L9.01562 2.32812C9.11458 2.01562 9.24479 1.77865 9.40625 1.61719C9.57292 1.45052 9.76823 1.36719 9.99219 1.36719C10.2214 1.36719 10.4167 1.45052 10.5781 1.61719C10.7448 1.77865 10.8776 2.01562 10.9766 2.32812L12.5078 7.09375H17.5312C17.8594 7.09375 18.125 7.14583 18.3281 7.25C18.5312 7.35417 18.6693 7.51302 18.7422 7.72656C18.8151 7.94531 18.7995 8.15885 18.6953 8.36719C18.5911 8.57031 18.4062 8.76562 18.1406 8.95312L14.0391 11.8984L15.6484 16.6719C15.7526 16.9792 15.7839 17.2448 15.7422 17.4688C15.7057 17.6979 15.5964 17.8802 15.4141 18.0156C15.2318 18.1615 15.026 18.2135 14.7969 18.1719C14.5677 18.1302 14.3229 18.0156 14.0625 17.8281L9.99219 14.8359L5.92969 17.8281C5.66927 18.0156 5.42448 18.1302 5.19531 18.1719C4.96615 18.2135 4.76042 18.1615 4.57812 18.0156Z" fill="white"/>
</svg>
