<svg width="32" height="32" viewBox="0 0 32 32" fill="none" xmlns="http://www.w3.org/2000/svg">
<g clip-path="url(#clip0_8003_464)">
<path d="M9.90625 24.4375C9.58594 24.5781 9.27344 24.625 8.96875 24.5781C8.66406 24.5312 8.39453 24.3906 8.16016 24.1562L6.47266 22.4688C6.23047 22.2266 6.08984 21.9531 6.05078 21.6484C6.01172 21.3438 6.05859 21.0312 6.19141 20.7109L7.84375 16.832C7.90625 16.6914 7.96875 16.5781 8.03125 16.4922C8.09375 16.3984 8.17188 16.3047 8.26562 16.2109L19.5742 4.98438C20.1367 4.42188 20.7344 4.14453 21.3672 4.15234C22.0078 4.16016 22.6133 4.44531 23.1836 5.00781L25.7148 7.5625C26.2852 8.13281 26.5703 8.73828 26.5703 9.37891C26.5703 10.0117 26.2891 10.6094 25.7266 11.1719L14.4297 22.4102C14.3281 22.5039 14.2305 22.582 14.1367 22.6445C14.0508 22.707 13.9336 22.7656 13.7852 22.8203L9.90625 24.4375ZM9.68359 22.3867L13.0117 20.9805L24.1914 9.87109C24.5195 9.55078 24.5312 9.23438 24.2266 8.92188L21.8359 6.50781C21.6875 6.35156 21.5273 6.27734 21.3555 6.28516C21.1914 6.29297 21.0312 6.37109 20.875 6.51953L9.68359 17.6406L8.25391 20.957C8.21484 21.0664 8.19922 21.168 8.20703 21.2617C8.21484 21.3477 8.26953 21.4375 8.37109 21.5312L9.10938 22.2695C9.20312 22.3633 9.29297 22.4141 9.37891 22.4219C9.47266 22.4297 9.57422 22.418 9.68359 22.3867ZM5.125 25.0586C4.84375 25.0586 4.66406 24.957 4.58594 24.7539C4.51562 24.5508 4.57031 24.3555 4.75 24.168L6.77734 22.0469L8.58203 23.875L7.41016 24.7891C7.28516 24.8906 7.17188 24.9609 7.07031 25C6.96875 25.0391 6.82812 25.0586 6.64844 25.0586H5.125ZM8.38281 17.5703L9.63672 16.3164L14.5703 21.2734L13.3164 22.5391L8.38281 17.5703ZM18.1562 7.86719L19.4102 6.625L24.3555 11.582L23.0898 12.8242L18.1562 7.86719ZM4.75 29.2188C4.46875 29.2188 4.22656 29.1133 4.02344 28.9023C3.82812 28.6992 3.73047 28.4609 3.73047 28.1875C3.73047 27.9062 3.82812 27.6641 4.02344 27.4609C4.22656 27.2578 4.46875 27.1562 4.75 27.1562H27.2266C27.5078 27.1562 27.75 27.2578 27.9531 27.4609C28.1562 27.6641 28.2578 27.9062 28.2578 28.1875C28.2578 28.4688 28.1562 28.7109 27.9531 28.9141C27.75 29.1172 27.5078 29.2188 27.2266 29.2188H4.75Z" fill="white"/>
</g>
<defs>
<clipPath id="clip0_8003_464">
<rect width="32" height="32" fill="white"/>
</clipPath>
</defs>
</svg>
