<svg width="40" height="40" viewBox="0 0 40 40" fill="none" xmlns="http://www.w3.org/2000/svg">
<path d="M0 20C0 8.95431 8.95431 0 20 0C31.0457 0 40 8.95431 40 20C40 31.0457 31.0457 40 20 40C8.95431 40 0 31.0457 0 20Z" fill="white" fill-opacity="0.05"/>
<g clip-path="url(#clip0_8003_562)">
<path d="M15.9375 25.625C15.724 25.7188 15.5156 25.75 15.3125 25.7188C15.1094 25.6875 14.9297 25.5938 14.7734 25.4375L13.6484 24.3125C13.487 24.151 13.3932 23.9688 13.3672 23.7656C13.3411 23.5625 13.3724 23.3542 13.4609 23.1406L14.5625 20.5547C14.6042 20.4609 14.6458 20.3854 14.6875 20.3281C14.7292 20.2656 14.7812 20.2031 14.8438 20.1406L22.3828 12.6562C22.7578 12.2812 23.1562 12.0964 23.5781 12.1016C24.0052 12.1068 24.4089 12.2969 24.7891 12.6719L26.4766 14.375C26.8568 14.7552 27.0469 15.1589 27.0469 15.5859C27.0469 16.0078 26.8594 16.4062 26.4844 16.7812L18.9531 24.2734C18.8854 24.3359 18.8203 24.388 18.7578 24.4297C18.7005 24.4714 18.6224 24.5104 18.5234 24.5469L15.9375 25.625ZM15.7891 24.2578L18.0078 23.3203L25.4609 15.9141C25.6797 15.7005 25.6875 15.4896 25.4844 15.2812L23.8906 13.6719C23.7917 13.5677 23.6849 13.5182 23.5703 13.5234C23.4609 13.5286 23.3542 13.5807 23.25 13.6797L15.7891 21.0938L14.8359 23.3047C14.8099 23.3776 14.7995 23.4453 14.8047 23.5078C14.8099 23.5651 14.8464 23.625 14.9141 23.6875L15.4062 24.1797C15.4688 24.2422 15.5286 24.276 15.5859 24.2812C15.6484 24.2865 15.7161 24.2786 15.7891 24.2578ZM12.75 26.0391C12.5625 26.0391 12.4427 25.9714 12.3906 25.8359C12.3438 25.7005 12.3802 25.5703 12.5 25.4453L13.8516 24.0312L15.0547 25.25L14.2734 25.8594C14.1901 25.9271 14.1146 25.974 14.0469 26C13.9792 26.026 13.8854 26.0391 13.7656 26.0391H12.75ZM14.9219 21.0469L15.7578 20.2109L19.0469 23.5156L18.2109 24.3594L14.9219 21.0469ZM21.4375 14.5781L22.2734 13.75L25.5703 17.0547L24.7266 17.8828L21.4375 14.5781ZM12.5 28.8125C12.3125 28.8125 12.151 28.7422 12.0156 28.6016C11.8854 28.4661 11.8203 28.3073 11.8203 28.125C11.8203 27.9375 11.8854 27.776 12.0156 27.6406C12.151 27.5052 12.3125 27.4375 12.5 27.4375H27.4844C27.6719 27.4375 27.8333 27.5052 27.9688 27.6406C28.1042 27.776 28.1719 27.9375 28.1719 28.125C28.1719 28.3125 28.1042 28.474 27.9688 28.6094C27.8333 28.7448 27.6719 28.8125 27.4844 28.8125H12.5Z" fill="white"/>
</g>
<defs>
<clipPath id="clip0_8003_562">
<rect width="24" height="24" fill="white" transform="translate(8 8)"/>
</clipPath>
</defs>
</svg>
